<?xml version="1.0" encoding="UTF-8" standalone="no"?>
<!-- Generator: Adobe Illustrator 16.0.0, SVG Export Plug-In . SVG Version: 6.00 Build 0)  -->

<svg
   version="1.1"
   id="Capa_1"
   x="0px"
   y="0px"
   width="206.326px"
   height="206.326px"
   viewBox="0 0 206.326 206.326"
   sodipodi:docname="body2.svg"
   inkscape:version="1.1.2 (b8e25be833, 2022-02-05)"
   xmlns:inkscape="http://www.inkscape.org/namespaces/inkscape"
   xmlns:sodipodi="http://sodipodi.sourceforge.net/DTD/sodipodi-0.dtd"
   xmlns="http://www.w3.org/2000/svg"
   xmlns:svg="http://www.w3.org/2000/svg">
  <defs
     id="defs11509" />
  <sodipodi:namedview
     id="namedview11507"
     pagecolor="#ffffff"
     bordercolor="#666666"
     borderopacity="1.0"
     inkscape:pageshadow="2"
     inkscape:pageopacity="0.0"
     inkscape:pagecheckerboard="0"
     showgrid="false"
     inkscape:zoom="5.695896"
     inkscape:cx="102.70553"
     inkscape:cy="90.942671"
     inkscape:window-width="1920"
     inkscape:window-height="1017"
     inkscape:window-x="-8"
     inkscape:window-y="-8"
     inkscape:window-maximized="1"
     inkscape:current-layer="Capa_1" />
  <g
     id="g11476" />
  <g
     id="g11478" />
  <g
     id="g11480" />
  <g
     id="g11482" />
  <g
     id="g11484" />
  <g
     id="g11486" />
  <g
     id="g11488" />
  <g
     id="g11490" />
  <g
     id="g11492" />
  <g
     id="g11494" />
  <g
     id="g11496" />
  <g
     id="g11498" />
  <g
     id="g11500" />
  <g
     id="g11502" />
  <g
     id="g11504" />
  <g
     id="body">
    <path
       id="rHand"
       style="fill:#00ffff;stroke:#1a1a1a;stroke-width:0.35113"
       d="m 72.330082,83.867192 -8.087891,-0.41797 c -0.444875,0.62905 -0.919937,1.28659 -1.416015,1.94336 -4.22453,5.59296 -5.930924,9.93748 -3.902344,9.93748 0.44667,0 1.26523,-0.47148 1.818359,-1.04883 0.55314,-0.57734 1.069455,-0.9872 1.146485,-0.91016 0.077,0.077 -0.353671,1.6809 -0.957031,3.56446 -1.27167,3.969898 -1.277018,4.890618 -0.02344,4.890618 0.69285,0 1.066304,-0.38517 1.871094,-1.931638 l 1.003906,-1.92969 -0.18164,2.105468 c -0.223152,2.58331 0.143912,4.52567 0.882812,4.66797 0.72006,0.13867 1.260257,-1.2325 1.679688,-4.26563 0.183109,-1.324098 0.421076,-2.495288 0.529296,-2.603508 0.10822,-0.10821 0.197266,1.02429 0.197266,2.517578 0,2.78182 0.376317,4.07226 1.185547,4.07226 0.71864,0 1.269774,-1.60442 1.302734,-3.79101 0.0229,-1.518948 0.09596,-1.784928 0.302735,-1.103518 0.45319,1.493508 1.069323,2.437498 1.589843,2.437498 0.58018,0 0.902205,-1.98101 0.828125,-5.091798 -0.0276,-1.15872 0.0136,-4.59677 0.0918,-7.64061 z" />
    <path
       id="rForearm"
       style="fill:#00ffff;stroke:#1a1a1a;stroke-width:0.35113"
       d="M 78.517582,71.310542 67.94141,67.14648 c -0.129144,0.937312 -0.242146,1.956392 -0.339843,3.101562 -0.497372,5.82982 -1.034446,9.26333 -1.654297,10.58594 -0.189582,0.40452 -0.871163,1.43608 -1.705079,2.61524 l 8.087891,0.41796 0.0039,-0.13282 2.941407,-5.69726 c 1.311766,-2.53986 2.376764,-4.74397 3.242187,-6.72656 z" />
    <path
       id="rQuad"
       style="fill:#00ffff;stroke:#1a1a1a;stroke-width:0.35113"
       d="m 96.376774,135.69336 c 0.04661,-0.24819 0.07025,-0.41096 0.123047,-0.68555 1.54661,-8.04365 3.275078,-20.77442 3.849609,-28.09765 l -18.982422,-0.10352 c 0.252298,1.84196 0.514851,3.72316 0.833985,5.9043 0.48037,3.28307 1.189781,7.31354 1.576172,8.95508 0.42897,1.8225 0.814964,5.18869 0.990234,8.64648 0.124736,2.4608 0.29879,4.62155 0.43164,5.54883 z" />
    <path
       id="rFoot"
       style="fill:#00ffff;stroke:#1a1a1a;stroke-width:0.35113"
       d="m 96.675598,171.66403 -7.390625,-0.0527 c 0.194695,1.08465 0.276667,2.11596 0.341797,3.60352 0.15536,3.54841 0.09685,4.03503 -0.714844,5.96874 -1.20023,2.85953 -1.747506,5.02544 -1.509765,5.97266 0.273618,1.09018 2.836156,1.87622 6.935546,2.125 1.794589,0.10889 3.333582,0.26718 3.419922,0.35352 0.2069,0.2069 1.49534,-0.1943 2.050782,-0.63868 0.691599,-0.55331 0.521789,-2.16541 -0.595704,-5.64453 -0.56932,-1.77248 -1.288506,-4.80315 -1.597656,-6.73437 -0.226994,-1.418 -0.599532,-3.36551 -0.939453,-4.95313 z" />
    <path
       id="rCalf"
       style="fill:#00ffff;stroke:#1a1a1a;stroke-width:0.35113"
       d="m 96.376774,135.69336 -11.177735,0.16797 c 0.03529,0.24632 0.06799,0.4571 0.0957,0.50195 0.13206,0.21369 -0.196969,1.69456 -0.730469,3.29102 -0.87295,2.61225 -0.967265,3.37657 -0.953125,7.64258 0.0179,5.39126 0.622057,8.17804 3.998047,18.43554 0.949843,2.88598 1.41601,4.43173 1.675781,5.87891 l 7.390625,0.0527 c -0.123028,-0.5746 -0.241506,-1.10673 -0.347656,-1.54297 -0.651311,-2.67651 -0.697861,-3.51038 -0.4375,-8.07617 0.37659,-6.60454 0.375957,-13.98143 -0.002,-18.60937 -0.250808,-3.07284 -0.182404,-4.17116 0.488281,-7.74219 z" />
    <path
       id="lFoot"
       style="fill:#00ffff;stroke:#1a1a1a;stroke-width:0.35113"
       d="m 113.63268,173.80859 h -7.57618 c -0.1857,0.92727 -0.37062,1.90106 -0.52539,2.82227 -0.39055,2.32487 -1.10659,5.39376 -1.59179,6.82031 -0.4852,1.42654 -0.88282,3.25242 -0.88282,4.05664 0,1.23031 0.14356,1.52643 0.9043,1.87305 0.49727,0.22657 1.04514,0.32486 1.2168,0.21875 0.17168,-0.1061 1.81092,-0.25281 3.64258,-0.32617 3.11412,-0.12474 5.41029,-0.61034 6.4375,-1.36133 0.71648,-0.52382 0.50399,-2.86504 -0.49219,-5.40625 -1.12923,-2.88062 -1.52654,-5.4248 -1.13281,-8.69727 z" />
    <path
       id="lCalf"
       style="fill:#00ffff;stroke:#1a1a1a;stroke-width:0.35113"
       d="m 118.06037,135.36328 -11.27539,0.17188 c 0.9373,4.90702 0.90733,5.71993 0.12891,12.98047 -0.32582,3.03893 -0.31848,4.70442 0.0391,7.90039 0.63521,5.6799 0.57703,11.66096 -0.13672,14.05664 -0.19107,0.64129 -0.4768,1.92305 -0.75977,3.33593 h 7.57618 c 0.29268,-2.43263 1.02094,-5.26572 2.21875,-8.94921 4.3356,-13.3328 4.85214,-17.78969 2.85937,-24.63672 -0.67183,-2.30836 -0.79861,-3.12523 -0.65039,-4.85938 z" />
    <path
       id="lQuad"
       style="fill:#00ffff;stroke:#1a1a1a;stroke-width:0.35113"
       d="m 121.74787,107.0293 -18.89844,-0.10547 c 1.28856,12.51062 2.35839,20.4691 3.74414,27.60742 0.0727,0.37454 0.1278,0.67091 0.19141,1.00391 l 11.27539,-0.17188 c 0.0296,-0.34608 0.0524,-0.66688 0.10352,-1.11133 0.18535,-1.6121 0.34088,-4.19526 0.3457,-5.74023 0.005,-1.54497 0.252,-3.91377 0.54883,-5.26563 0.92315,-4.2042 1.71295,-8.99553 2.68945,-16.21679 z" />
    <path
       id="ass"
       style="fill:#00ffff;stroke:#1a1a1a;stroke-width:0.35113"
       d="m 83.958808,72.683596 -0.859375,2.632813 C 79.526642,86.24497 79.118206,90.388701 81.367011,106.80664 l 18.982419,0.10352 c 0.0477,-0.60793 0.10201,-1.25081 0.13282,-1.77735 0.21292,-3.63924 0.23331,-3.71354 1.02343,-3.5625 0.68653,0.13124 0.83356,0.42388 0.98633,1.96094 0.12455,1.25306 0.23729,2.22615 0.35742,3.39258 l 18.89844,0.10547 c 0.16074,-1.18867 0.31318,-2.28417 0.48633,-3.62305 1.71734,-13.279309 1.44513,-17.027423 -2,-27.597654 l -1.01758,-3.125 z" />
    <path
       id="abs"
       style="fill:#00ffff;stroke:#1a1a1a;stroke-width:0.35113"
       d="m 83.958804,72.683596 h 35.257816 l -0.45899,-1.40625 0.23633,-9.304688 c 0.12967,-5.117719 0.35207,-10.015718 0.49414,-10.884765 l 0.25781,-1.580078 0.008,0.02148 -0.23242,-3.746094 -35.738287,0.234375 -0.248047,4.039063 c 0.136649,0.106915 0.200545,0.849875 0.330078,2.65039 0.1235,1.716524 0.322992,6.51781 0.445313,10.669922 l 0.222656,7.550781 z" />
    <path
       id="lHand"
       style="fill:#00ffff;stroke:#1a1a1a;stroke-width:0.35113"
       d="m 139.24219,83.929687 -8.6582,0.63672 c 0.27928,1.79037 0.33327,4.07453 0.4121,7.95508 0.0922,4.53835 0.25671,8.537763 0.36524,8.886713 0.30832,0.99133 1.25993,0.54476 1.72852,-0.81054 l 0.42578,-1.228523 0.24218,1.755863 c 0.3356,2.43584 0.78563,3.40779 1.51368,3.26758 0.71789,-0.13826 1.07618,-1.80154 1.1582,-5.375003 l 0.0566,-2.45898 0.46289,3.39648 c 0.51368,3.765693 0.9762,4.953363 1.85937,4.785163 0.48526,-0.0924 0.62143,-0.67481 0.76563,-3.26758 0.13365,-2.402863 0.24884,-2.947523 0.48437,-2.279303 0.52093,1.477903 1.63522,2.808593 2.34961,2.808593 0.53924,0 0.67774,-0.24842 0.67774,-1.21093 0,-0.990143 -1.0873,-5.023863 -2.0332,-7.542973 -0.11394,-0.30346 0.36715,0.0538 1.06835,0.79297 0.8996,0.94826 1.51384,1.3096 2.08594,1.22851 1.94226,-0.2753 0.63678,-3.71509 -3.57226,-9.41992 -0.52823,-0.71595 -0.98667,-1.34512 -1.39258,-1.91992 z" />
    <path
       id="lForearm"
       style="fill:#00ffff;stroke:#1a1a1a;stroke-width:0.35113"
       d="m 134.97852,65.48242 -10.62305,5.273438 c 0.83864,2.060912 1.82881,4.153156 2.95117,6.140625 2.03405,3.601872 2.8825,5.138714 3.27735,7.669924 l 8.6582,-0.63672 c -2.70833,-3.835152 -2.91659,-5.1769 -3.53711,-12.652345 -0.19654,-2.36771 -0.42469,-4.209492 -0.72656,-5.794922 z" />
    <path
       id="lBicep"
       style="fill:#00ffff;stroke:#1a1a1a;stroke-width:0.35113"
       d="m 129.81641,45.714841 -10.29492,0.06836 0.23242,3.746094 0.62304,1.962891 c 0.77218,2.428697 1.27275,5.744495 1.28907,8.550781 0.0159,2.732391 1.03996,6.659344 2.68945,10.712891 l 10.62305,-5.273438 c -0.42775,-2.246515 -1.00963,-3.962202 -1.91211,-5.791015 -1.50311,-3.045973 -2.91269,-8.493639 -3.17188,-12.25586 -0.0195,-0.283651 -0.0531,-1.205456 -0.0781,-1.720703 z" />
    <path
       id="rBicep"
       style="fill:#00ffff;stroke:#1a1a1a;stroke-width:0.35113"
       d="m 83.535156,50.056639 0.24805,-4.039063 -10.51758,0.07031 c -0.12387,2.418471 -0.25983,4.232562 -0.37891,4.824218 -0.68178,3.387639 -1.78952,6.876534 -2.85156,8.982422 -1.05061,2.083223 -1.67186,4.189908 -2.09375,7.251953 l 10.57617,4.164063 c 2.2629,-5.184041 3.11777,-8.806687 3.12695,-12.607422 0.007,-2.777575 0.72414,-6.690927 1.49805,-8.167969 0.18529,-0.353638 0.30432,-0.547573 0.39258,-0.478515 z" />
    <path
       id="chest"
       style="fill:#00ffff;stroke:#1a1a1a;stroke-width:0.35113"
       d="m 129.23633,27.994136 -55.302736,0.353515 c -0.181758,2.109995 -0.270141,5.069496 -0.373046,9.572266 -0.06733,2.946018 -0.175545,5.837214 -0.294922,8.167969 l 56.550784,-0.373047 c -0.11272,-2.325908 -0.26018,-6.243312 -0.37696,-10.4375 z" />
    <path
       id="lShoulder"
       style="fill:#00ffff;stroke:#1a1a1a;stroke-width:0.35113"
       d="m 116.57422,16.671875 0.43359,11.400391 12.22852,-0.07813 -0.0566,-2.03125 -1.07813,-2.304688 c -1.92376,-4.110981 -4.01405,-5.602226 -9.10156,-6.490234 -0.88359,-0.154227 -1.68545,-0.318322 -2.42578,-0.496094 z" />
    <path
       id="rShoulder"
       style="fill:#00ffff;stroke:#1a1a1a;stroke-width:0.35113"
       d="m 85.603516,28.273438 -0.3125,-11.34375 c -0.500962,0.10868 -1.018251,0.21469 -1.574219,0.316406 -3.82803,0.700351 -5.901369,1.920856 -7.605469,4.470703 -1.316192,1.969435 -1.875997,3.128057 -2.177734,6.630859 z" />
    <path
       id="neck"
       style="fill:#00ffff;stroke:#1a1a1a;stroke-width:0.35113"
       d="M 109.64648 11.363281 L 93.548828 11.476562 C 92.832614 14.241614 90.52535 15.794135 85.291016 16.929688 L 85.603516 28.273438 L 117.00781 28.072266 L 116.57422 16.671875 C 112.25719 15.635248 110.28119 14.130357 109.64648 11.363281 z " />
  </g>
</svg>
